<svg width="79" height="105" viewBox="0 0 79 105" fill="none" xmlns="http://www.w3.org/2000/svg">
<path d="M34.1197 53.1047L38.663 57.1135C35.7529 59.6673 33.407 62.1023 31.6253 64.4185C29.8436 66.7348 28.6855 68.5165 28.151 69.7637C27.6759 71.0109 27.2304 72.4362 26.8147 74.0398L27.171 74.5743C31.1502 74.5743 34.0603 75.4354 35.9014 77.1577C37.7425 78.8801 38.663 81.5526 38.663 85.1754C38.663 87.9668 37.6534 90.4909 35.6341 92.7477C33.6743 95.0045 31.2096 96.1329 28.2401 96.1329C24.8548 96.1329 22.0338 95.1827 19.777 93.2822C17.5201 91.3817 16.3917 88.3231 16.3917 84.1064C16.3917 78.5237 18.114 72.7629 21.5587 66.8238C25.0627 60.8254 29.2497 56.2524 34.1197 53.1047Z" fill="#0B3588"/>
<path d="M57.2047 53.1047L61.748 57.1135C58.8379 59.6673 56.492 62.1023 54.7103 64.4185C52.9286 66.7348 51.7704 68.5165 51.2359 69.7637C50.7608 71.0109 50.3154 72.4362 49.8997 74.0398L50.256 74.5743C54.2351 74.5743 57.1453 75.4354 58.9864 77.1577C60.8275 78.8801 61.748 81.5526 61.748 85.1754C61.748 87.9668 60.7384 90.4909 58.7191 92.7477C56.7592 95.0045 54.2945 96.1329 51.325 96.1329C47.9398 96.1329 45.1187 95.1827 42.8619 93.2822C40.6051 91.3817 39.4767 88.3231 39.4767 84.1064C39.4767 78.5237 41.199 72.7629 44.6436 66.8238C48.1476 60.8254 52.3347 56.2524 57.2047 53.1047Z" fill="#0B3588"/>
</svg>
