<svg width="20" height="21" viewBox="0 0 20 21" fill="none" xmlns="http://www.w3.org/2000/svg">
<g clip-path="url(#clip0_415_1323)">
<path d="M12.043 20.3633C11.9453 20.3672 11.8828 20.375 11.8203 20.375C10.4844 20.375 9.15234 20.3711 7.81641 20.3789C7.62891 20.3789 7.57812 20.3281 7.57812 20.1406C7.58203 17.0313 7.58203 13.918 7.58203 10.8086C7.58203 10.7266 7.58203 10.6445 7.58203 10.5391C6.85547 10.5391 6.14844 10.5391 5.42969 10.5391C5.42969 9.4297 5.42969 8.33985 5.42969 7.21876C5.50391 7.21876 5.57422 7.21876 5.64062 7.21876C6.22656 7.21876 6.8125 7.21485 7.39844 7.22267C7.54687 7.22267 7.58594 7.1797 7.58594 7.03517C7.57812 6.16407 7.57812 5.28907 7.58594 4.41798C7.58984 3.8086 7.6875 3.21485 7.96875 2.66407C8.37109 1.88673 9.00781 1.38282 9.8125 1.07032C10.4687 0.81251 11.1602 0.71876 11.8555 0.707041C12.9883 0.691416 14.1211 0.699229 15.2539 0.695322C15.3594 0.695322 15.4453 0.691416 15.4453 0.839854C15.4414 1.91407 15.4414 2.98829 15.4414 4.06251C15.4414 4.07423 15.4375 4.08595 15.4219 4.13673C15.3555 4.13673 15.2812 4.13673 15.207 4.13673C14.5039 4.13673 13.8008 4.13282 13.0977 4.13673C12.6914 4.13673 12.3633 4.30079 12.1562 4.65626C12.0937 4.76173 12.0547 4.89845 12.0547 5.02345C12.043 5.68751 12.0547 6.35157 12.0469 7.01563C12.0469 7.17188 12.0937 7.21485 12.2461 7.21485C13.2227 7.20704 14.1992 7.21095 15.1758 7.21095C15.2539 7.21095 15.3281 7.21095 15.4609 7.21095C15.3242 8.32813 15.1914 9.42189 15.0547 10.5274C14.0391 10.5274 13.0508 10.5274 12.043 10.5274C12.043 13.8125 12.043 17.0781 12.043 20.3633Z" fill="white"/>
</g>
<defs>
<clipPath id="clip0_415_1323">
<rect width="20" height="20" fill="white" transform="translate(0 0.5)"/>
</clipPath>
</defs>
</svg>
