<svg width="25" height="25" viewBox="0 0 25 25" fill="none" xmlns="http://www.w3.org/2000/svg">
<path d="M11.7188 2.34375V3.90625H10.1562V5.46875H11.7188V7.03125H13.2812V5.46875H14.8438V3.90625H13.2812V2.34375H11.7188ZM4.6875 3.90625V21.875H11.7188V19.5312H13.2812V21.875H20.3125V3.90625H16.4062V5.46875H18.75V20.3125H14.8438V17.9688H10.1562V20.3125H6.25V5.46875H8.59375V3.90625H4.6875ZM8.59375 8.59375V10.1562H10.1562V8.59375H8.59375ZM11.7188 8.59375V10.1562H13.2812V8.59375H11.7188ZM14.8438 8.59375V10.1562H16.4062V8.59375H14.8438ZM8.59375 11.7188V13.2812H10.1562V11.7188H8.59375ZM11.7188 11.7188V13.2812H13.2812V11.7188H11.7188ZM14.8438 11.7188V13.2812H16.4062V11.7188H14.8438ZM8.59375 14.8438V16.4062H10.1562V14.8438H8.59375ZM11.7188 14.8438V16.4062H13.2812V14.8438H11.7188ZM14.8438 14.8438V16.4062H16.4062V14.8438H14.8438Z" fill="white"/>
</svg>
