<svg width="102" height="19" viewBox="0 0 102 19" fill="none" xmlns="http://www.w3.org/2000/svg">
<path d="M10.25 9.54L8.49 4.73C8.40333 4.51667 8.31333 4.26333 8.22 3.97C8.12667 3.67667 8.03333 3.36 7.94 3.02C7.85333 3.36 7.76333 3.68 7.67 3.98C7.57667 4.27333 7.48667 4.53 7.4 4.75L5.65 9.54H10.25ZM15 15H12.92C12.6867 15 12.4967 14.9433 12.35 14.83C12.2033 14.71 12.0933 14.5633 12.02 14.39L10.94 11.44H4.95L3.87 14.39C3.81667 14.5433 3.71333 14.6833 3.56 14.81C3.40667 14.9367 3.21667 15 2.99 15H0.89L6.58 0.539999H9.32L15 15ZM25.2667 15H22.8867C22.7067 15 22.5601 14.9533 22.4467 14.86C22.3401 14.7667 22.2501 14.66 22.1767 14.54L20.0067 10.97C19.9734 11.0833 19.9334 11.19 19.8867 11.29C19.8467 11.39 19.8001 11.4833 19.7467 11.57L17.8267 14.54C17.7534 14.6533 17.6634 14.76 17.5567 14.86C17.4501 14.9533 17.3167 15 17.1567 15H14.9467L18.4667 9.71L15.0867 4.74H17.4667C17.6467 4.74 17.7801 4.76667 17.8667 4.82C17.9534 4.86667 18.0301 4.94667 18.0967 5.06L20.2467 8.48C20.3201 8.25333 20.4234 8.03 20.5567 7.81L22.2867 5.11C22.4334 4.86333 22.6234 4.74 22.8567 4.74H25.1267L21.7567 9.6L25.2667 15ZM35.3769 12.78V15H26.9069V0.539999H29.5969V12.78H35.3769ZM40.9202 4.58C41.6802 4.58 42.3702 4.70333 42.9902 4.95C43.6168 5.19667 44.1502 5.54667 44.5902 6C45.0368 6.45333 45.3802 7.00667 45.6202 7.66C45.8602 8.31333 45.9802 9.04333 45.9802 9.85C45.9802 10.6633 45.8602 11.3967 45.6202 12.05C45.3802 12.7033 45.0368 13.26 44.5902 13.72C44.1502 14.18 43.6168 14.5333 42.9902 14.78C42.3702 15.0267 41.6802 15.15 40.9202 15.15C40.1535 15.15 39.4568 15.0267 38.8302 14.78C38.2035 14.5333 37.6668 14.18 37.2202 13.72C36.7802 13.26 36.4368 12.7033 36.1902 12.05C35.9502 11.3967 35.8302 10.6633 35.8302 9.85C35.8302 9.04333 35.9502 8.31333 36.1902 7.66C36.4368 7.00667 36.7802 6.45333 37.2202 6C37.6668 5.54667 38.2035 5.19667 38.8302 4.95C39.4568 4.70333 40.1535 4.58 40.9202 4.58ZM40.9202 13.25C41.7735 13.25 42.4035 12.9633 42.8102 12.39C43.2235 11.8167 43.4302 10.9767 43.4302 9.87C43.4302 8.76333 43.2235 7.92 42.8102 7.34C42.4035 6.76 41.7735 6.47 40.9202 6.47C40.0535 6.47 39.4102 6.76333 38.9902 7.35C38.5768 7.93 38.3702 8.77 38.3702 9.87C38.3702 10.97 38.5768 11.81 38.9902 12.39C39.4102 12.9633 40.0535 13.25 40.9202 13.25ZM51.5364 9.62C51.8431 9.62 52.1097 9.58 52.3364 9.5C52.5631 9.41333 52.7497 9.29667 52.8964 9.15C53.0497 9.00333 53.1631 8.82667 53.2364 8.62C53.3164 8.41333 53.3564 8.18667 53.3564 7.94C53.3564 7.43333 53.2031 7.03333 52.8964 6.74C52.5964 6.44 52.1431 6.29 51.5364 6.29C50.9297 6.29 50.4731 6.44 50.1664 6.74C49.8664 7.03333 49.7164 7.43333 49.7164 7.94C49.7164 8.18 49.7531 8.40333 49.8264 8.61C49.9064 8.81667 50.0197 8.99667 50.1664 9.15C50.3197 9.29667 50.5097 9.41333 50.7364 9.5C50.9697 9.58 51.2364 9.62 51.5364 9.62ZM54.3264 15.46C54.3264 15.26 54.2664 15.0967 54.1464 14.97C54.0264 14.8433 53.8631 14.7467 53.6564 14.68C53.4497 14.6067 53.2064 14.5533 52.9264 14.52C52.6531 14.4867 52.3597 14.4633 52.0464 14.45C51.7397 14.43 51.4197 14.4133 51.0864 14.4C50.7597 14.3867 50.4397 14.36 50.1264 14.32C49.8531 14.4733 49.6297 14.6533 49.4564 14.86C49.2897 15.0667 49.2064 15.3067 49.2064 15.58C49.2064 15.76 49.2497 15.9267 49.3364 16.08C49.4297 16.24 49.5731 16.3767 49.7664 16.49C49.9664 16.6033 50.2231 16.69 50.5364 16.75C50.8497 16.8167 51.2331 16.85 51.6864 16.85C52.1464 16.85 52.5431 16.8133 52.8764 16.74C53.2097 16.6733 53.4831 16.5767 53.6964 16.45C53.9164 16.33 54.0764 16.1833 54.1764 16.01C54.2764 15.8433 54.3264 15.66 54.3264 15.46ZM56.7864 5.09V6.01C56.7864 6.30333 56.6097 6.48333 56.2564 6.55L55.3364 6.72C55.4764 7.07333 55.5464 7.46 55.5464 7.88C55.5464 8.38667 55.4431 8.84667 55.2364 9.26C55.0364 9.66667 54.7564 10.0133 54.3964 10.3C54.0364 10.5867 53.6097 10.81 53.1164 10.97C52.6297 11.1233 52.1031 11.2 51.5364 11.2C51.3364 11.2 51.1431 11.19 50.9564 11.17C50.7697 11.15 50.5864 11.1233 50.4064 11.09C50.0864 11.2833 49.9264 11.5 49.9264 11.74C49.9264 11.9467 50.0197 12.1 50.2064 12.2C50.3997 12.2933 50.6531 12.36 50.9664 12.4C51.2797 12.44 51.6364 12.4667 52.0364 12.48C52.4364 12.4867 52.8464 12.5067 53.2664 12.54C53.6864 12.5733 54.0964 12.6333 54.4964 12.72C54.8964 12.8 55.2531 12.93 55.5664 13.11C55.8797 13.29 56.1297 13.5367 56.3164 13.85C56.5097 14.1567 56.6064 14.5533 56.6064 15.04C56.6064 15.4933 56.4931 15.9333 56.2664 16.36C56.0464 16.7867 55.7231 17.1667 55.2964 17.5C54.8764 17.8333 54.3564 18.1 53.7364 18.3C53.1231 18.5067 52.4231 18.61 51.6364 18.61C50.8631 18.61 50.1897 18.5333 49.6164 18.38C49.0431 18.2333 48.5664 18.0333 48.1864 17.78C47.8064 17.5333 47.5231 17.2467 47.3364 16.92C47.1497 16.5933 47.0564 16.2533 47.0564 15.9C47.0564 15.42 47.1997 15.02 47.4864 14.7C47.7797 14.3733 48.1797 14.1133 48.6864 13.92C48.4131 13.78 48.1964 13.5933 48.0364 13.36C47.8764 13.1267 47.7964 12.82 47.7964 12.44C47.7964 12.2867 47.8231 12.13 47.8764 11.97C47.9364 11.8033 48.0197 11.64 48.1264 11.48C48.2397 11.32 48.3797 11.17 48.5464 11.03C48.7131 10.8833 48.9097 10.7533 49.1364 10.64C48.6164 10.36 48.2064 9.98667 47.9064 9.52C47.6131 9.05333 47.4664 8.50667 47.4664 7.88C47.4664 7.37333 47.5664 6.91667 47.7664 6.51C47.9731 6.09667 48.2564 5.74667 48.6164 5.46C48.9831 5.16667 49.4131 4.94333 49.9064 4.79C50.4064 4.63667 50.9497 4.56 51.5364 4.56C51.9764 4.56 52.3897 4.60667 52.7764 4.7C53.1631 4.78667 53.5164 4.91667 53.8364 5.09H56.7864ZM60.9128 4.74V15H58.4328V4.74H60.9128ZM61.2528 1.75C61.2528 1.96333 61.2095 2.16333 61.1228 2.35C61.0361 2.53667 60.9195 2.7 60.7728 2.84C60.6328 2.98 60.4661 3.09333 60.2728 3.18C60.0795 3.26 59.8728 3.3 59.6528 3.3C59.4395 3.3 59.2361 3.26 59.0428 3.18C58.8561 3.09333 58.6928 2.98 58.5528 2.84C58.4128 2.7 58.2995 2.53667 58.2128 2.35C58.1328 2.16333 58.0928 1.96333 58.0928 1.75C58.0928 1.53 58.1328 1.32333 58.2128 1.13C58.2995 0.936666 58.4128 0.77 58.5528 0.63C58.6928 0.489999 58.8561 0.379999 59.0428 0.3C59.2361 0.213333 59.4395 0.17 59.6528 0.17C59.8728 0.17 60.0795 0.213333 60.2728 0.3C60.4661 0.379999 60.6328 0.489999 60.7728 0.63C60.9195 0.77 61.0361 0.936666 61.1228 1.13C61.2095 1.32333 61.2528 1.53 61.2528 1.75ZM69.6909 6.74C69.6243 6.84667 69.5543 6.92333 69.4809 6.97C69.4076 7.01 69.3143 7.03 69.2009 7.03C69.0809 7.03 68.9509 6.99667 68.8109 6.93C68.6776 6.86333 68.5209 6.79 68.3409 6.71C68.1609 6.62333 67.9543 6.54667 67.7209 6.48C67.4943 6.41333 67.2243 6.38 66.9109 6.38C66.4243 6.38 66.0409 6.48333 65.7609 6.69C65.4876 6.89667 65.3509 7.16667 65.3509 7.5C65.3509 7.72 65.4209 7.90667 65.5609 8.06C65.7076 8.20667 65.8976 8.33667 66.1309 8.45C66.3709 8.56333 66.6409 8.66667 66.9409 8.76C67.2409 8.84667 67.5443 8.94333 67.8509 9.05C68.1643 9.15667 68.4709 9.28 68.7709 9.42C69.0709 9.55333 69.3376 9.72667 69.5709 9.94C69.8109 10.1467 70.0009 10.3967 70.1409 10.69C70.2876 10.9833 70.3609 11.3367 70.3609 11.75C70.3609 12.2433 70.2709 12.7 70.0909 13.12C69.9176 13.5333 69.6576 13.8933 69.3109 14.2C68.9643 14.5 68.5343 14.7367 68.0209 14.91C67.5143 15.0767 66.9276 15.16 66.2609 15.16C65.9076 15.16 65.5609 15.1267 65.2209 15.06C64.8876 15 64.5643 14.9133 64.2509 14.8C63.9443 14.6867 63.6576 14.5533 63.3909 14.4C63.1309 14.2467 62.9009 14.08 62.7009 13.9L63.2709 12.96C63.3443 12.8467 63.4309 12.76 63.5309 12.7C63.6309 12.64 63.7576 12.61 63.9109 12.61C64.0643 12.61 64.2076 12.6533 64.3409 12.74C64.4809 12.8267 64.6409 12.92 64.8209 13.02C65.0009 13.12 65.2109 13.2133 65.4509 13.3C65.6976 13.3867 66.0076 13.43 66.3809 13.43C66.6743 13.43 66.9243 13.3967 67.1309 13.33C67.3443 13.2567 67.5176 13.1633 67.6509 13.05C67.7909 12.9367 67.8909 12.8067 67.9509 12.66C68.0176 12.5067 68.0509 12.35 68.0509 12.19C68.0509 11.95 67.9776 11.7533 67.8309 11.6C67.6909 11.4467 67.5009 11.3133 67.2609 11.2C67.0276 11.0867 66.7576 10.9867 66.4509 10.9C66.1509 10.8067 65.8409 10.7067 65.5209 10.6C65.2076 10.4933 64.8976 10.37 64.5909 10.23C64.2909 10.0833 64.0209 9.9 63.7809 9.68C63.5476 9.46 63.3576 9.19 63.2109 8.87C63.0709 8.55 63.0009 8.16333 63.0009 7.71C63.0009 7.29 63.0843 6.89 63.2509 6.51C63.4176 6.13 63.6609 5.8 63.9809 5.52C64.3076 5.23333 64.7109 5.00667 65.1909 4.84C65.6776 4.66667 66.2376 4.58 66.8709 4.58C67.5776 4.58 68.2209 4.69667 68.8009 4.93C69.3809 5.16333 69.8643 5.47 70.2509 5.85L69.6909 6.74ZM82.57 15H80.1V6.59H75.34V12.15C75.34 12.47 75.4167 12.72 75.57 12.9C75.73 13.08 75.9467 13.17 76.22 13.17C76.3733 13.17 76.5 13.1533 76.6 13.12C76.7067 13.08 76.7967 13.04 76.87 13C76.95 12.96 77.02 12.9233 77.08 12.89C77.14 12.85 77.2 12.83 77.26 12.83C77.3333 12.83 77.3933 12.85 77.44 12.89C77.4867 12.9233 77.5367 12.9767 77.59 13.05L78.33 14.25C77.97 14.55 77.5567 14.7767 77.09 14.93C76.6233 15.0833 76.14 15.16 75.64 15.16C74.7467 15.16 74.06 14.91 73.58 14.41C73.1067 13.9033 72.87 13.2067 72.87 12.32V6.59H71.82C71.6867 6.59 71.5733 6.54667 71.48 6.46C71.3867 6.37333 71.34 6.24333 71.34 6.07V5.09L72.99 4.81L73.51 2.02C73.5433 1.88667 73.6067 1.78333 73.7 1.71C73.7933 1.63667 73.9133 1.6 74.06 1.6H75.34V4.83H82.57V15ZM83 1.71C83 1.92333 82.9567 2.12667 82.87 2.32C82.7833 2.50667 82.6667 2.67 82.52 2.81C82.38 2.95 82.21 3.06333 82.01 3.15C81.8167 3.23 81.61 3.27 81.39 3.27C81.1767 3.27 80.9767 3.23 80.79 3.15C80.6033 3.06333 80.44 2.95 80.3 2.81C80.16 2.67 80.0467 2.50667 79.96 2.32C79.88 2.12667 79.84 1.92333 79.84 1.71C79.84 1.49 79.88 1.28667 79.96 1.1C80.0467 0.906666 80.16 0.74 80.3 0.599999C80.44 0.453333 80.6033 0.34 80.79 0.259999C80.9767 0.173332 81.1767 0.129999 81.39 0.129999C81.61 0.129999 81.8167 0.173332 82.01 0.259999C82.21 0.34 82.38 0.453333 82.52 0.599999C82.6667 0.74 82.7833 0.906666 82.87 1.1C82.9567 1.28667 83 1.49 83 1.71ZM92.4411 6.91C92.3678 7.00333 92.2944 7.07667 92.2211 7.13C92.1544 7.18333 92.0544 7.21 91.9211 7.21C91.7944 7.21 91.6711 7.17333 91.5511 7.1C91.4311 7.02 91.2878 6.93333 91.1211 6.84C90.9544 6.74 90.7544 6.65333 90.5211 6.58C90.2944 6.5 90.0111 6.46 89.6711 6.46C89.2378 6.46 88.8578 6.54 88.5311 6.7C88.2044 6.85333 87.9311 7.07667 87.7111 7.37C87.4978 7.66333 87.3378 8.02 87.2311 8.44C87.1244 8.85333 87.0711 9.32333 87.0711 9.85C87.0711 10.3967 87.1278 10.8833 87.2411 11.31C87.3611 11.7367 87.5311 12.0967 87.7511 12.39C87.9711 12.6767 88.2378 12.8967 88.5511 13.05C88.8644 13.1967 89.2178 13.27 89.6111 13.27C90.0044 13.27 90.3211 13.2233 90.5611 13.13C90.8078 13.03 91.0144 12.9233 91.1811 12.81C91.3478 12.69 91.4911 12.5833 91.6111 12.49C91.7378 12.39 91.8778 12.34 92.0311 12.34C92.2311 12.34 92.3811 12.4167 92.4811 12.57L93.1911 13.47C92.9178 13.79 92.6211 14.06 92.3011 14.28C91.9811 14.4933 91.6478 14.6667 91.3011 14.8C90.9611 14.9267 90.6078 15.0167 90.2411 15.07C89.8811 15.1233 89.5211 15.15 89.1611 15.15C88.5278 15.15 87.9311 15.0333 87.3711 14.8C86.8111 14.56 86.3211 14.2133 85.9011 13.76C85.4811 13.3067 85.1478 12.7533 84.9011 12.1C84.6611 11.44 84.5411 10.69 84.5411 9.85C84.5411 9.09667 84.6478 8.4 84.8611 7.76C85.0811 7.11333 85.4011 6.55667 85.8211 6.09C86.2411 5.61667 86.7611 5.24667 87.3811 4.98C88.0011 4.71333 88.7144 4.58 89.5211 4.58C90.2878 4.58 90.9578 4.70333 91.5311 4.95C92.1111 5.19667 92.6311 5.55 93.0911 6.01L92.4411 6.91ZM101 6.74C100.933 6.84667 100.863 6.92333 100.79 6.97C100.716 7.01 100.623 7.03 100.51 7.03C100.39 7.03 100.26 6.99667 100.12 6.93C99.9862 6.86333 99.8295 6.79 99.6495 6.71C99.4695 6.62333 99.2629 6.54667 99.0295 6.48C98.8029 6.41333 98.5329 6.38 98.2195 6.38C97.7329 6.38 97.3495 6.48333 97.0695 6.69C96.7962 6.89667 96.6595 7.16667 96.6595 7.5C96.6595 7.72 96.7295 7.90667 96.8695 8.06C97.0162 8.20667 97.2062 8.33667 97.4395 8.45C97.6795 8.56333 97.9495 8.66667 98.2495 8.76C98.5495 8.84667 98.8529 8.94333 99.1595 9.05C99.4729 9.15667 99.7795 9.28 100.08 9.42C100.38 9.55333 100.646 9.72667 100.88 9.94C101.12 10.1467 101.31 10.3967 101.45 10.69C101.596 10.9833 101.67 11.3367 101.67 11.75C101.67 12.2433 101.58 12.7 101.4 13.12C101.226 13.5333 100.966 13.8933 100.62 14.2C100.273 14.5 99.8429 14.7367 99.3295 14.91C98.8229 15.0767 98.2362 15.16 97.5695 15.16C97.2162 15.16 96.8695 15.1267 96.5295 15.06C96.1962 15 95.8729 14.9133 95.5595 14.8C95.2529 14.6867 94.9662 14.5533 94.6995 14.4C94.4395 14.2467 94.2095 14.08 94.0095 13.9L94.5795 12.96C94.6529 12.8467 94.7395 12.76 94.8395 12.7C94.9395 12.64 95.0662 12.61 95.2195 12.61C95.3729 12.61 95.5162 12.6533 95.6495 12.74C95.7895 12.8267 95.9495 12.92 96.1295 13.02C96.3095 13.12 96.5195 13.2133 96.7595 13.3C97.0062 13.3867 97.3162 13.43 97.6895 13.43C97.9829 13.43 98.2329 13.3967 98.4395 13.33C98.6529 13.2567 98.8262 13.1633 98.9595 13.05C99.0995 12.9367 99.1995 12.8067 99.2595 12.66C99.3262 12.5067 99.3595 12.35 99.3595 12.19C99.3595 11.95 99.2862 11.7533 99.1395 11.6C98.9995 11.4467 98.8095 11.3133 98.5695 11.2C98.3362 11.0867 98.0662 10.9867 97.7595 10.9C97.4595 10.8067 97.1495 10.7067 96.8295 10.6C96.5162 10.4933 96.2062 10.37 95.8995 10.23C95.5995 10.0833 95.3295 9.9 95.0895 9.68C94.8562 9.46 94.6662 9.19 94.5195 8.87C94.3795 8.55 94.3095 8.16333 94.3095 7.71C94.3095 7.29 94.3929 6.89 94.5595 6.51C94.7262 6.13 94.9695 5.8 95.2895 5.52C95.6162 5.23333 96.0195 5.00667 96.4995 4.84C96.9862 4.66667 97.5462 4.58 98.1795 4.58C98.8862 4.58 99.5295 4.69667 100.11 4.93C100.69 5.16333 101.173 5.47 101.56 5.85L101 6.74Z" fill="#3C3C3C"/>
</svg>
