<svg width="100" height="100" viewBox="0 0 100 100" fill="none" xmlns="http://www.w3.org/2000/svg">
<circle cx="50" cy="50" r="50" fill="#D8BEF8"/>
<path d="M39.8999 44.1H31.3999V69.6C31.3999 69.7 31.4999 69.8 31.5999 69.8H69.5999C69.6999 69.8 69.7999 69.7 69.7999 69.6V46.1L73.7999 41.1H65.1999L62.4999 44.1H54.6999" stroke="#9C5CEE" stroke-width="2" stroke-miterlimit="10"/>
<path d="M31.4 44.0999L28.2 39.3999V39.2999H34.3L37.8 44.0999" stroke="#9C5CEE" stroke-width="2" stroke-miterlimit="10"/>
<path d="M62.3999 69.7999V46.3999" stroke="#9C5CEE" stroke-width="2" stroke-miterlimit="10"/>
<path d="M67.8999 46.3999H64.5999" stroke="#9C5CEE" stroke-width="2" stroke-miterlimit="10"/>
<path d="M52.1999 42.9V48H56.0999C56.1999 48 56.2999 48.1999 56.1999 48.2999L47.2999 57.2C47.1999 57.3 47.0999 57.3 47.0999 57.2L38.1999 48.2999C38.0999 48.1999 38.1999 48 38.2999 48H42.1999V42.7" stroke="#9C5CEE" stroke-width="2" stroke-miterlimit="10"/>
<path d="M59.7998 26.2V34.7H62.7998C62.8998 34.7 62.9998 34.8 62.8998 34.9L55.9998 41.8C55.9998 41.8 55.8998 41.8 55.7998 41.8L53.9998 40" stroke="#9C5CEE" stroke-width="2" stroke-miterlimit="10"/>
<path d="M52.2 27.1V42.9" stroke="#9C5CEE" stroke-width="2" stroke-miterlimit="10" stroke-dasharray="1.99 1.99"/>
<path d="M47.2 36.1V51.9" stroke="#9C5CEE" stroke-width="2" stroke-miterlimit="10" stroke-dasharray="1.99 1.99"/>
</svg>
