<svg width="100" height="100" viewBox="0 0 100 100" fill="none" xmlns="http://www.w3.org/2000/svg">
<circle cx="50" cy="50" r="50" fill="#ACC4F3"/>
<g clip-path="url(#clip0_914_321)">
<path d="M71.0938 53.125H68.75V43.75C68.75 41.5961 66.9977 39.8438 64.8438 39.8438H54.6875V25.7812C54.6875 25.35 54.3383 25 53.9062 25H25.7812C25.3492 25 25 25.35 25 25.7812V60.1562V66.4062C25 68.5602 26.7523 70.3125 28.9062 70.3125H29.75C30.1312 72.9586 32.407 75 35.1562 75C37.9055 75 40.1812 72.9586 40.5625 70.3125H53.9062H56.3125C56.6938 72.9586 58.9695 75 61.7188 75C64.468 75 66.7437 72.9586 67.125 70.3125H71.0938C73.2477 70.3125 75 68.5602 75 66.4062V61.7188V57.0312C75 54.8773 73.2477 53.125 71.0938 53.125ZM26.5625 57.8125H53.125V59.375H26.5625V57.8125ZM26.5625 32.0312V26.5625H53.125V32.0312H51.5625V33.5938H53.125V40.625V56.25H26.5625V33.5938H28.125V32.0312H26.5625ZM35.1562 73.4375C33.0023 73.4375 31.25 71.6852 31.25 69.5312C31.25 67.3773 33.0023 65.625 35.1562 65.625C37.3102 65.625 39.0625 67.3773 39.0625 69.5312C39.0625 71.6852 37.3102 73.4375 35.1562 73.4375ZM53.125 68.75H40.5625C40.1812 66.1039 37.9055 64.0625 35.1562 64.0625C32.407 64.0625 30.1312 66.1039 29.75 68.75H28.9062C27.6141 68.75 26.5625 67.6984 26.5625 66.4062V60.9375H53.125V68.75ZM61.7188 73.4375C59.5648 73.4375 57.8125 71.6852 57.8125 69.5312C57.8125 67.3773 59.5648 65.625 61.7188 65.625C63.8727 65.625 65.625 67.3773 65.625 69.5312C65.625 71.6852 63.8727 73.4375 61.7188 73.4375ZM71.0938 68.75H67.125C66.7437 66.1039 64.468 64.0625 61.7188 64.0625C58.9695 64.0625 56.6938 66.1039 56.3125 68.75H54.6875V60.1562V41.4062H64.8438C66.1359 41.4062 67.1875 42.4578 67.1875 43.75V53.9062C67.1875 54.3375 67.5367 54.6875 67.9688 54.6875H71.0938C72.3859 54.6875 73.4375 55.7391 73.4375 57.0312V60.9375H71.875C70.1516 60.9375 68.75 62.3391 68.75 64.0625C68.75 65.7859 70.1516 67.1875 71.875 67.1875H73.2938C72.9703 68.0945 72.1109 68.75 71.0938 68.75ZM73.4375 65.625H71.875C71.0133 65.625 70.3125 64.9242 70.3125 64.0625C70.3125 63.2008 71.0133 62.5 71.875 62.5H73.4375V65.625Z" fill="#4343CB"/>
<path d="M64.8438 42.9688H57.0312C56.5992 42.9688 56.25 43.3188 56.25 43.75V50.7812C56.25 51.2125 56.5992 51.5625 57.0312 51.5625H64.8438C65.2758 51.5625 65.625 51.2125 65.625 50.7812V43.75C65.625 43.3188 65.2758 42.9688 64.8438 42.9688ZM64.0625 50H57.8125V44.5312H64.0625V50Z" fill="#4343CB"/>
<path d="M59.375 53.125H56.25V54.6875H59.375V53.125Z" fill="#4343CB"/>
<path d="M42.9688 62.5H41.4062V64.0625H42.9688V62.5Z" fill="#4343CB"/>
<path d="M46.0938 62.5H44.5312V64.0625H46.0938V62.5Z" fill="#4343CB"/>
<path d="M49.2188 62.5H47.6562V64.0625H49.2188V62.5Z" fill="#4343CB"/>
<path d="M51.5625 30.4688H50V32.0312H51.5625V30.4688Z" fill="#4343CB"/>
<path d="M50 32.0312H48.4375V33.5938H50V32.0312Z" fill="#4343CB"/>
<path d="M48.4375 30.4688H46.875V32.0312H48.4375V30.4688Z" fill="#4343CB"/>
<path d="M46.875 32.0312H45.3125V33.5938H46.875V32.0312Z" fill="#4343CB"/>
<path d="M45.3125 30.4688H43.75V32.0312H45.3125V30.4688Z" fill="#4343CB"/>
<path d="M43.75 32.0312H42.1875V33.5938H43.75V32.0312Z" fill="#4343CB"/>
<path d="M42.1875 30.4688H40.625V32.0312H42.1875V30.4688Z" fill="#4343CB"/>
<path d="M40.625 32.0312H39.0625V33.5938H40.625V32.0312Z" fill="#4343CB"/>
<path d="M39.0625 30.4688H37.5V32.0312H39.0625V30.4688Z" fill="#4343CB"/>
<path d="M37.5 32.0312H35.9375V33.5938H37.5V32.0312Z" fill="#4343CB"/>
<path d="M35.9375 30.4688H34.375V32.0312H35.9375V30.4688Z" fill="#4343CB"/>
<path d="M34.375 32.0312H32.8125V33.5938H34.375V32.0312Z" fill="#4343CB"/>
<path d="M32.8125 30.4688H31.25V32.0312H32.8125V30.4688Z" fill="#4343CB"/>
<path d="M31.25 32.0312H29.6875V33.5938H31.25V32.0312Z" fill="#4343CB"/>
<path d="M29.6875 30.4688H28.125V32.0312H29.6875V30.4688Z" fill="#4343CB"/>
<path d="M30.0906 49.1211C30.2078 49.1859 30.3383 49.2187 30.4688 49.2187C30.6133 49.2187 30.7563 49.1789 30.8828 49.1L35.9375 45.9414V48.4375C35.9375 48.7219 36.0914 48.9828 36.3406 49.1211C36.4578 49.1859 36.5883 49.2187 36.7188 49.2187C36.8633 49.2187 37.0062 49.1789 37.1328 49.1L42.1875 45.9414V48.4375C42.1875 48.7219 42.3414 48.9828 42.5906 49.1211C42.7078 49.1859 42.8383 49.2187 42.9688 49.2187C43.1133 49.2187 43.2563 49.1789 43.3828 49.1L49.6328 45.1937C49.8609 45.0508 50 44.8008 50 44.5312C50 44.2617 49.8609 44.0117 49.6328 43.8687L43.3828 39.9625C43.1406 39.8117 42.8367 39.8039 42.5898 39.9422C42.3414 40.0797 42.1875 40.3406 42.1875 40.625V43.1211L37.1328 39.9617C36.8906 39.8109 36.5875 39.8031 36.3398 39.9414C36.0914 40.0797 35.9375 40.3406 35.9375 40.625V43.1211L30.8828 39.9617C30.6406 39.8109 30.3367 39.8031 30.0898 39.9414C29.8414 40.0797 29.6875 40.3406 29.6875 40.625V48.4375C29.6875 48.7219 29.8414 48.9828 30.0906 49.1211ZM43.75 42.0344L47.7445 44.5312L43.75 47.0281V42.0344ZM37.5 42.0344L41.4945 44.5312L37.5 47.0281V42.0344ZM31.25 42.0344L35.2445 44.5312L31.25 47.0281V42.0344Z" fill="#4343CB"/>
</g>
<defs>
<clipPath id="clip0_914_321">
<rect width="50" height="50" fill="white" transform="translate(25 25)"/>
</clipPath>
</defs>
</svg>
