<svg width="23" height="23" viewBox="0 0 23 23" fill="none" xmlns="http://www.w3.org/2000/svg">
<g clip-path="url(#clip0_415_1316)">
<path fill-rule="evenodd" clip-rule="evenodd" d="M22.9999 4.18554C22.1548 4.57043 21.2449 4.83062 20.2904 4.94688C21.265 4.34888 22.013 3.40049 22.3654 2.27097C21.4528 2.82477 20.4444 3.22763 19.3669 3.44361C18.5084 2.50367 17.2811 1.91663 15.9231 1.91663C13.3188 1.91663 11.2061 4.08312 11.2061 6.75507C11.2061 7.13439 11.2465 7.50257 11.3276 7.8571C7.40605 7.65477 3.92982 5.73049 1.60089 2.79979C1.19461 3.51692 0.962277 4.34888 0.962277 5.23492C0.962277 6.91284 1.79531 8.394 3.06157 9.26207C2.28945 9.23853 1.56028 9.01842 0.923105 8.6585V8.71798C0.923105 11.0631 2.54982 13.0192 4.70984 13.4623C4.31435 13.5758 3.89711 13.6326 3.4664 13.6326C3.16273 13.6326 2.86571 13.6035 2.57803 13.5467C3.17872 15.4683 4.92025 16.8679 6.98576 16.9053C5.37109 18.2039 3.33541 18.9776 1.12543 18.9776C0.744676 18.9776 0.368051 18.9555 -0.000488281 18.9111C2.08802 20.2816 4.56932 21.0832 7.23283 21.0832C15.9134 21.0832 20.6585 13.7113 20.6585 7.31695C20.6585 7.10654 20.6544 6.89613 20.6463 6.68985C21.5688 6.00739 22.3693 5.15603 22.9999 4.18554Z" fill="white"/>
</g>
<defs>
<clipPath id="clip0_415_1316">
<rect width="23" height="23" fill="white"/>
</clipPath>
</defs>
</svg>
